<?xml version="1.0" encoding="UTF-8"?>
<svg version="1.1" viewBox="0 0 342 342" xml:space="preserve" xmlns="http://www.w3.org/2000/svg" xmlns:cc="http://creativecommons.org/ns#" xmlns:dc="http://purl.org/dc/elements/1.1/" xmlns:rdf="http://www.w3.org/1999/02/22-rdf-syntax-ns#"><metadata><rdf:RDF><cc:Work rdf:about=""><dc:format>image/svg+xml</dc:format><dc:type rdf:resource="http://purl.org/dc/dcmitype/StillImage"/><dc:title/></cc:Work></rdf:RDF></metadata><defs><clipPath id="a"><path d="m0 500h500v-500h-500z"/></clipPath></defs><g transform="matrix(1.3333 0 0 -1.3333 0 342)"><g transform="translate(-122.89 -120.6)"><g clip-path="url(#a)"><g transform="translate(379,249)"><path d="m0 0c0-70.692-57.308-128-128-128s-128 57.308-128 128 57.308 128 128 128 128-57.308 128-128" fill="#31b5ab"/></g><g transform="translate(325.87 292.08)"><path d="m0 0h-133.75c-3.796 0-6.874-3.078-6.874-6.875v-80.417c0-3.797 3.078-6.875 6.874-6.875h133.75c3.797 0 6.874 3.078 6.874 6.875v80.417c0 3.797-3.077 6.875-6.874 6.875" fill="#269a8c"/></g><g transform="translate(318.87 202.92)"><path d="m0 0h-133.75c-3.796 0-6.874 3.077-6.874 6.874v80.418c0 3.797 3.078 6.875 6.874 6.875h133.75c3.797 0 6.874-3.078 6.874-6.875v-80.418c0-3.797-3.077-6.874-6.874-6.874" fill="#585da4"/></g><g transform="translate(220.27 263.59)"><path d="m0 0h-25.894c-2.14 0-3.875 1.735-3.875 3.875v12.746c0 2.14 1.735 3.875 3.875 3.875h25.894c2.14 0 3.875-1.735 3.875-3.875v-12.746c0-2.14-1.735-3.875-3.875-3.875" fill="#f0bd56"/></g><g transform="translate(206.55 266.68)"><path d="m0 0h-10.248c-0.427 0-0.773 0.347-0.773 0.773 0 0.428 0.346 0.774 0.773 0.774h9.475v11.408c0 0.427 0.346 0.774 0.773 0.774h11.408c0.427 0 0.774-0.347 0.774-0.774s-0.347-0.773-0.774-0.773h-10.635v-11.409c0-0.426-0.346-0.773-0.773-0.773" fill="#d29229"/></g><g transform="translate(217.96 266.68)"><path d="m0 0h-7.928c-0.427 0-0.773 0.347-0.773 0.773 0 0.428 0.346 0.774 0.773 0.774h7.928c0.427 0 0.773-0.346 0.773-0.774 0-0.426-0.346-0.773-0.773-0.773" fill="#d29229"/></g><g transform="translate(217.96 272.48)"><path d="m0 0h-7.928c-0.427 0-0.773 0.346-0.773 0.773 0 0.428 0.346 0.774 0.773 0.774h7.928c0.427 0 0.773-0.346 0.773-0.774 0-0.427-0.346-0.773-0.773-0.773" fill="#d29229"/></g><g transform="translate(203.52 272.48)"><path d="m0 0h-7.28c-0.428 0-0.774 0.346-0.774 0.773 0 0.428 0.346 0.774 0.774 0.774h7.28c0.427 0 0.773-0.346 0.773-0.774 0-0.427-0.346-0.773-0.773-0.773" fill="#d29229"/></g><g transform="translate(203.52 278.86)"><path d="m0 0h-7.28c-0.428 0-0.774 0.346-0.774 0.773 0 0.428 0.346 0.774 0.774 0.774h7.28c0.427 0 0.773-0.346 0.773-0.774 0-0.427-0.346-0.773-0.773-0.773" fill="#d29229"/></g><path d="m213.82 216.25h-30.063v4.333h30.063z" fill="#393f77"/><path d="m249.29 216.25h-30.063v4.333h30.063z" fill="#393f77"/><path d="m284.77 216.25h-30.063v4.333h30.063z" fill="#393f77"/><path d="m320.25 216.25h-30.062v4.333h30.062z" fill="#393f77"/><g transform="translate(271.39 279.92)"><path d="m0 0c0-1.687-1.368-3.054-3.055-3.054-1.686 0-3.053 1.367-3.053 3.054s1.367 3.054 3.053 3.054c1.687 0 3.055-1.367 3.055-3.054" fill="#393f77"/></g><g transform="translate(280.39 279.92)"><path d="m0 0c0-1.687-1.368-3.054-3.055-3.054-1.686 0-3.053 1.367-3.053 3.054s1.367 3.054 3.053 3.054c1.687 0 3.055-1.367 3.055-3.054" fill="#393f77"/></g><g transform="translate(289.39 279.92)"><path d="m0 0c0-1.687-1.368-3.054-3.055-3.054-1.686 0-3.053 1.367-3.053 3.054s1.367 3.054 3.053 3.054c1.687 0 3.055-1.367 3.055-3.054" fill="#393f77"/></g><g transform="translate(298.39 279.92)"><path d="m0 0c0-1.687-1.368-3.054-3.055-3.054-1.686 0-3.053 1.367-3.053 3.054s1.367 3.054 3.053 3.054c1.687 0 3.055-1.367 3.055-3.054" fill="#393f77"/></g><g transform="translate(307.39 279.92)"><path d="m0 0c0-1.687-1.368-3.054-3.055-3.054-1.686 0-3.053 1.367-3.053 3.054s1.367 3.054 3.053 3.054c1.687 0 3.055-1.367 3.055-3.054" fill="#393f77"/></g><g transform="translate(316.39 279.92)"><path d="m0 0c0-1.687-1.368-3.054-3.055-3.054-1.686 0-3.053 1.367-3.053 3.054s1.367 3.054 3.053 3.054c1.687 0 3.055-1.367 3.055-3.054" fill="#393f77"/></g><g transform="translate(278.82 267.45)"><path d="m0 0h-11.979c-0.861 0-1.565 0.704-1.565 1.564 0 0.861 0.704 1.565 1.565 1.565h11.979c0.86 0 1.564-0.704 1.564-1.565 0-0.86-0.704-1.564-1.564-1.564" fill="#393f77"/></g><g transform="translate(296.82 267.45)"><path d="m0 0h-11.979c-0.861 0-1.565 0.704-1.565 1.564 0 0.861 0.704 1.565 1.565 1.565h11.979c0.86 0 1.564-0.704 1.564-1.565 0-0.86-0.704-1.564-1.564-1.564" fill="#393f77"/></g><g transform="translate(314.82 267.45)"><path d="m0 0h-11.979c-0.861 0-1.565 0.704-1.565 1.564 0 0.861 0.704 1.565 1.565 1.565h11.979c0.86 0 1.564-0.704 1.564-1.565 0-0.86-0.704-1.564-1.564-1.564" fill="#393f77"/></g></g></g></g></svg>
